P3
45 45
255
0 0 0 0 0 0 0 0 0 0 0 0 0 0 0 0 0 0 0 0 0 0 0 0 
0 0 0 0 0 0 0 0 0 0 0 0 0 0 0 0 0 0 0 0 0 0 0 0 
0 0 0 0 0 0 0 0 0 0 0 0 0 0 0 0 0 0 0 0 0 0 0 0 
0 0 0 0 0 0 0 0 0 0 0 0 0 0 0 0 0 0 0 0 0 0 0 0 
0 0 0 0 0 0 0 0 0 0 0 0 0 0 0 0 0 0 0 0 0 0 0 0 
0 0 0 0 0 0 0 0 0 0 0 0 0 0 0 
0 0 0 0 0 0 0 0 0 0 0 0 0 0 0 0 0 0 0 0 0 0 0 0 
0 0 0 0 0 0 0 0 0 0 0 0 0 0 0 0 0 0 0 0 0 0 0 0 
0 0 0 0 0 0 0 0 0 0 0 0 0 0 0 0 0 0 0 0 0 0 0 0 
0 0 0 0 0 0 0 0 0 0 0 0 0 0 0 0 0 0 0 0 0 0 0 0 
0 0 0 0 0 0 0 0 0 0 0 0 0 0 0 0 0 0 0 0 0 0 0 0 
0 0 0 0 0 0 0 0 0 0 0 0 0 0 0 
0 0 0 0 0 0 0 0 0 0 0 0 0 0 0 0 0 0 0 0 0 0 0 0 
0 0 0 0 0 0 0 0 0 0 0 0 0 0 0 0 0 0 0 0 0 0 0 0 
0 0 0 0 0 0 0 0 0 0 0 0 0 0 0 0 0 0 0 0 0 0 0 0 
0 0 0 0 0 0 0 0 0 0 0 0 0 0 0 0 0 0 0 0 0 0 0 0 
0 0 0 0 0 0 0 0 0 0 0 0 0 0 0 0 0 0 0 0 0 0 0 0 
0 0 0 0 0 0 0 0 0 0 0 0 0 0 0 
0 0 0 0 0 0 0 0 0 0 0 0 0 0 0 0 0 0 0 0 0 0 0 0 
0 0 0 0 0 0 0 0 0 0 0 0 0 0 0 0 0 0 0 0 0 0 0 0 
0 0 0 0 0 0 0 0 0 0 0 0 0 0 0 0 0 0 0 0 0 0 0 0 
0 0 0 0 0 0 0 0 0 0 0 0 0 0 0 0 0 0 0 0 0 0 0 0 
0 0 0 0 0 0 0 0 0 0 0 0 0 0 0 0 0 0 0 0 0 0 0 0 
0 0 0 0 0 0 0 0 0 0 0 0 0 0 0 
0 0 0 0 0 0 0 0 0 0 0 0 0 0 0 0 0 0 0 0 0 0 0 0 
0 0 0 0 0 0 0 0 0 0 0 0 0 0 0 0 0 0 0 0 0 0 0 0 
0 0 0 0 0 0 0 0 0 0 0 0 0 0 0 0 0 0 0 0 0 0 0 0 
0 0 0 0 0 0 0 0 0 0 0 0 0 0 0 0 0 0 0 0 0 0 0 0 
0 0 0 0 0 0 0 0 0 0 0 0 0 0 0 0 0 0 0 0 0 0 0 0 
0 0 0 0 0 0 0 0 0 0 0 0 0 0 0 
0 0 0 0 0 0 0 0 0 0 0 0 0 0 0 0 0 0 0 0 0 0 0 0 
0 0 0 0 0 0 0 0 0 0 0 0 0 0 12 0 0 0 0 0 0 0 0 0 
0 0 0 0 0 0 0 0 0 0 0 0 0 0 0 0 0 0 0 0 0 0 0 0 
0 0 0 0 0 0 0 0 0 0 0 0 0 0 0 0 0 0 0 0 0 0 0 21 
0 0 0 0 0 0 0 0 0 0 0 0 0 0 0 0 0 0 0 0 0 0 0 0 
0 0 0 0 0 0 0 0 0 0 0 0 0 0 0 
0 0 0 0 0 0 0 0 0 0 0 0 0 0 0 0 0 0 0 0 0 0 0 0 
0 0 0 106 24 17 0 0 0 0 0 0 0 0 0 0 0 0 0 0 0 0 0 35 
82 15 11 86 23 12 95 20 16 121 22 31 150 37 59 204 76 41 224 91 31 178 57 55 
126 22 53 102 19 26 84 17 13 96 25 11 0 0 23 0 0 0 0 0 0 0 0 0 
0 0 0 0 0 0 0 0 0 0 0 14 0 0 0 0 0 0 0 0 0 0 0 0 
0 0 0 0 0 0 0 0 0 0 0 0 0 0 0 
0 0 0 0 0 0 0 0 0 0 0 0 0 0 0 0 0 0 0 0 0 0 0 14 
0 0 0 0 0 0 0 0 0 0 0 0 104 0 18 59 16 12 80 21 14 158 46 20 
176 63 16 155 56 14 152 47 17 171 49 26 190 59 41 219 83 31 229 93 24 206 72 37 
175 49 37 155 45 21 150 50 14 173 64 14 170 60 16 100 26 17 95 27 13 81 20 10 
0 0 0 0 0 0 0 0 0 0 0 0 122 46 15 0 0 0 0 0 0 0 0 0 
0 0 0 0 0 0 0 0 0 0 0 0 0 0 0 
0 0 0 0 0 0 0 0 0 0 0 0 0 0 0 0 0 0 46 0 20 0 0 0 
0 0 0 0 0 7 84 10 17 177 60 17 210 79 17 177 65 15 169 61 16 200 72 18 
209 79 17 196 75 15 192 69 17 203 70 21 213 76 29 228 89 24 233 94 21 220 82 27 
205 70 28 193 68 19 192 69 17 208 81 15 204 77 17 178 62 17 194 74 15 197 74 16 
162 51 17 119 31 16 13 0 12 0 0 0 0 0 0 138 33 21 0 0 0 0 0 0 
0 0 0 0 0 0 0 0 0 0 0 0 0 0 0 
0 0 0 0 0 0 0 0 0 0 0 0 23 0 19 0 0 0 0 0 0 0 0 28 
74 13 19 149 47 17 172 57 17 206 77 17 221 86 17 209 80 16 214 82 16 225 87 18 
233 92 17 234 94 16 235 93 17 235 93 17 235 94 18 236 94 17 236 94 17 235 93 18 
235 93 17 234 93 17 234 93 16 235 94 17 227 89 17 218 83 17 222 87 16 214 82 16 
194 69 17 184 65 17 175 63 17 141 39 20 8 0 30 0 0 0 0 0 0 105 16 20 
0 0 0 0 0 0 0 0 0 0 0 0 0 0 0 
101 16 20 0 0 0 0 0 0 205 64 0 0 0 0 0 0 0 79 8 18 96 22 19 
149 48 19 199 72 18 218 83 17 227 89 17 233 92 17 231 91 17 235 93 17 237 94 17 
239 96 17 243 98 17 245 99 17 242 99 16 240 97 15 238 95 15 237 94 16 239 96 15 
242 99 15 244 99 16 245 98 17 241 96 17 237 95 17 236 94 17 234 93 17 231 91 17 
223 86 17 223 87 17 210 79 18 180 60 19 160 48 20 123 30 18 0 0 0 0 0 0 
0 0 0 102 29 15 0 0 0 0 0 0 0 0 0 
0 0 0 101 16 20 132 31 15 0 0 0 136 33 11 84 22 17 138 39 18 180 62 18 
211 81 18 229 89 18 236 93 17 237 95 17 238 95 17 238 95 17 238 95 17 237 95 17 
236 94 17 235 94 17 234 94 17 235 94 17 235 94 17 236 94 17 236 94 17 236 94 17 
235 93 17 234 93 17 234 94 17 235 94 17 237 95 17 237 95 17 237 95 17 239 95 17 
238 95 17 237 95 17 233 92 18 219 83 18 196 70 18 166 53 18 139 36 20 147 52 19 
0 0 0 0 0 0 138 33 21 0 0 0 0 0 0 
0 0 0 101 16 20 0 0 0 0 0 52 144 46 17 174 58 17 195 68 18 224 86 18 
244 99 17 242 98 17 236 94 17 236 94 17 236 94 17 236 94 17 236 94 17 236 94 17 
236 94 17 236 94 17 236 94 17 236 94 17 236 94 17 236 94 17 236 94 17 236 94 17 
236 94 17 236 94 17 236 94 17 236 94 17 236 94 17 236 94 17 236 94 17 236 94 17 
236 94 17 234 93 17 247 100 17 247 101 17 223 86 17 203 73 18 188 65 19 161 54 18 
109 33 16 0 0 0 0 0 0 102 29 15 0 0 0 
86 25 15 0 0 0 0 0 0 118 29 21 175 61 17 209 79 17 232 90 18 239 95 18 
236 95 17 235 94 17 236 94 17 236 94 17 236 94 17 236 94 17 236 94 17 236 94 17 
236 94 17 236 94 17 236 94 17 236 94 17 236 94 17 236 94 17 236 94 17 236 94 17 
0 0 0 0 0 0 0 0 0 0 0 0 0 0 0 0 0 0 0 0 0 0 0 0 
235 94 17 239 95 17 228 88 17 238 96 17 249 101 17 237 93 18 214 80 18 188 67 18 
162 53 18 130 27 22 0 0 0 0 0 0 104 24 14 
0 0 0 0 0 0 88 27 20 180 61 18 214 81 17 232 92 17 238 95 17 237 95 17 
236 94 17 236 94 17 236 94 17 236 94 17 236 94 17 236 94 17 236 94 17 236 94 17 
236 94 17 236 94 17 236 94 17 236 94 17 236 94 17 0 0 0 0 0 0 0 0 0 
0 0 0 236 94 17 0 0 0 0 0 0 0 0 0 236 94 17 236 94 17 0 0 0 
0 0 0 0 0 0 0 0 0 195 79 16 255 116 19 253 105 17 237 95 17 214 81 17 
184 63 18 148 44 19 80 21 14 0 0 0 0 0 0 
0 0 0 38 6 12 175 61 17 214 82 16 234 93 17 239 95 17 237 94 17 236 94 17 
236 94 17 236 94 17 236 94 17 236 94 17 236 94 17 236 94 17 236 94 17 236 94 17 
236 94 17 236 94 17 236 94 17 236 94 17 236 94 17 0 0 0 0 0 0 0 0 0 
0 0 0 236 94 17 0 0 0 0 0 0 0 0 0 236 94 17 236 94 17 0 0 0 
0 0 0 0 0 0 0 0 0 153 61 16 255 121 17 0 0 0 255 121 17 232 93 18 
200 73 18 166 57 16 119 31 16 0 0 0 0 0 0 
0 0 0 166 57 16 212 83 17 232 93 17 239 96 17 237 95 17 236 94 17 236 94 17 
236 94 17 236 94 17 236 94 17 236 94 17 236 94 17 236 94 17 236 94 17 236 94 17 
236 94 17 0 0 0 0 0 0 0 0 0 0 0 0 0 0 0 236 94 17 0 0 0 
0 0 0 0 0 0 236 94 17 0 0 0 0 0 0 0 0 0 0 0 0 0 0 0 
0 0 0 224 88 17 0 0 0 0 0 0 0 0 0 0 0 0 0 0 0 247 156 13 
210 89 16 184 65 17 146 47 16 81 13 15 0 0 0 
91 14 16 199 75 17 228 90 17 237 95 17 237 95 17 236 94 17 236 94 17 236 94 17 
236 94 17 236 94 17 236 94 17 236 94 17 236 94 17 236 94 17 236 94 17 236 94 17 
0 0 0 0 0 0 236 94 17 236 94 17 0 0 0 0 0 0 0 0 0 0 0 0 
0 0 0 236 94 17 0 0 0 0 0 0 0 0 0 236 94 17 236 94 17 236 94 17 
0 0 0 0 0 0 0 0 0 0 0 0 0 0 0 0 0 0 0 0 0 0 0 0 
247 156 13 198 74 16 174 61 16 95 20 16 0 0 0 
146 52 13 217 83 17 232 91 17 237 94 17 236 94 17 236 94 17 236 94 17 236 94 17 
236 94 17 236 94 17 236 94 17 236 94 17 236 94 17 236 94 17 0 0 0 0 0 0 
0 0 0 236 94 17 0 0 0 0 0 0 0 0 0 0 0 0 0 0 0 0 0 0 
0 0 0 236 94 17 0 0 0 236 94 17 236 94 17 236 94 17 236 94 17 236 94 17 
236 94 17 0 0 0 0 0 0 236 94 17 0 0 0 0 0 0 0 0 0 0 0 0 
0 0 0 231 90 16 215 83 16 209 80 16 179 68 14 
146 46 16 231 91 17 239 96 17 237 94 17 236 94 17 236 94 17 236 94 17 236 94 17 
236 94 17 236 94 17 236 94 17 236 94 17 236 94 17 0 0 0 0 0 0 0 0 0 
236 94 17 0 0 0 0 0 0 0 0 0 0 0 0 0 0 0 0 0 0 0 0 0 
0 0 0 0 0 0 236 94 17 236 94 17 236 94 17 236 94 17 236 94 17 236 94 17 
236 94 17 236 94 17 236 94 17 236 94 17 236 94 17 236 94 17 236 94 17 236 94 17 
236 94 17 236 93 17 236 94 17 236 94 17 229 91 17 
146 36 20 230 91 17 241 98 17 237 95 17 236 94 17 236 94 17 236 94 17 236 94 17 
236 94 17 236 94 17 236 94 17 236 94 17 236 94 17 0 0 0 236 94 17 236 94 17 
0 0 0 0 0 0 0 0 0 0 0 0 0 0 0 0 0 0 0 0 0 0 0 0 
0 0 0 0 0 0 236 94 17 236 94 17 236 94 17 236 94 17 236 94 17 236 94 17 
236 94 17 236 94 17 236 94 17 236 94 17 236 94 17 236 94 17 236 94 17 236 94 17 
236 94 17 236 94 17 236 94 17 237 95 17 237 95 17 
195 65 21 232 93 17 238 96 17 236 94 17 236 94 17 236 94 17 236 94 17 236 94 17 
236 94 17 236 94 17 236 94 17 236 94 17 0 0 0 0 0 0 0 0 0 0 0 0 
0 0 0 0 0 0 0 0 0 0 0 0 0 0 0 0 0 0 0 0 0 0 0 0 
0 0 0 0 0 0 236 94 17 236 94 17 236 94 17 236 94 17 236 94 17 236 94 17 
236 94 17 236 94 17 236 94 17 236 94 17 236 94 17 236 94 17 236 94 17 236 94 17 
236 94 17 236 94 17 236 94 17 236 94 17 236 94 17 
234 91 20 235 94 17 236 95 17 236 94 17 236 94 17 236 94 17 236 94 17 236 94 17 
236 94 17 236 94 17 236 94 17 236 94 17 0 0 0 236 94 17 0 0 0 0 0 0 
0 0 0 0 0 0 0 0 0 0 0 0 0 0 0 0 0 0 0 0 0 0 0 0 
236 94 17 0 0 0 236 94 17 236 94 17 236 94 17 236 94 17 236 94 17 0 0 0 
236 94 17 236 94 17 236 94 17 236 94 17 236 94 17 236 94 17 236 94 17 236 94 17 
0 0 0 236 94 17 236 94 17 236 94 17 236 94 17 
195 65 21 232 93 17 238 96 17 236 94 17 236 94 17 236 94 17 236 94 17 236 94 17 
236 94 17 236 94 17 236 94 17 236 94 17 0 0 0 0 0 0 0 0 0 0 0 0 
0 0 0 0 0 0 0 0 0 0 0 0 0 0 0 0 0 0 0 0 0 0 0 0 
0 0 0 0 0 0 236 94 17 236 94 17 236 94 17 236 94 17 236 94 17 236 94 17 
0 0 0 236 94 17 236 94 17 236 94 17 236 94 17 236 94 17 236 94 17 0 0 0 
0 0 0 236 94 17 236 94 17 236 94 17 236 94 17 
146 36 20 230 91 17 241 98 17 237 95 17 236 94 17 236 94 17 236 94 17 236 94 17 
236 94 17 236 94 17 236 94 17 236 94 17 236 94 17 0 0 0 236 94 17 236 94 17 
0 0 0 0 0 0 0 0 0 0 0 0 0 0 0 0 0 0 0 0 0 0 0 0 
0 0 0 0 0 0 236 94 17 236 94 17 236 94 17 236 94 17 236 94 17 236 94 17 
236 94 17 0 0 0 236 94 17 236 94 17 236 94 17 236 94 17 236 94 17 0 0 0 
0 0 0 236 94 17 236 94 17 236 94 17 236 94 17 
146 46 16 231 91 17 239 96 17 237 94 17 236 94 17 236 94 17 236 94 17 236 94 17 
236 94 17 236 94 17 236 94 17 236 94 17 236 94 17 0 0 0 0 0 0 0 0 0 
236 94 17 0 0 0 0 0 0 0 0 0 0 0 0 0 0 0 0 0 0 0 0 0 
0 0 0 236 94 17 236 94 17 236 94 17 236 94 17 236 94 17 236 94 17 236 94 17 
236 94 17 236 94 17 236 94 17 236 94 17 236 94 17 236 94 17 0 0 0 235 94 17 
231 91 17 233 92 17 235 94 17 236 94 17 235 94 17 
146 52 13 217 83 17 232 91 17 237 94 17 236 94 17 236 94 17 236 94 17 236 94 17 
236 94 17 236 94 17 236 94 17 236 94 17 236 94 17 236 94 17 0 0 0 0 0 0 
0 0 0 236 94 17 0 0 0 0 0 0 0 0 0 0 0 0 0 0 0 0 0 0 
0 0 0 236 94 17 236 94 17 236 94 17 236 94 17 236 94 17 236 94 17 236 94 17 
236 94 17 236 94 17 236 94 17 236 94 17 236 94 17 236 94 17 0 0 0 234 93 17 
238 95 17 239 96 17 238 95 17 235 94 17 235 94 17 
91 14 16 199 75 17 228 90 17 237 95 17 237 95 17 236 94 17 236 94 17 236 94 17 
236 94 17 236 94 17 236 94 17 236 94 17 236 94 17 236 94 17 236 94 17 236 94 17 
0 0 0 0 0 0 236 94 17 236 94 17 0 0 0 0 0 0 0 0 0 0 0 0 
0 0 0 236 94 17 236 94 17 236 94 17 236 94 17 236 94 17 0 0 0 236 94 17 
236 94 17 236 94 17 236 94 17 236 94 17 236 94 17 238 95 17 0 0 0 238 97 17 
243 98 17 241 96 17 235 94 17 223 87 17 244 97 17 
0 0 0 166 57 16 212 83 17 232 93 17 239 96 17 237 95 17 236 94 17 236 94 17 
236 94 17 236 94 17 236 94 17 236 94 17 236 94 17 236 94 17 236 94 17 236 94 17 
236 94 17 0 0 0 0 0 0 0 0 0 0 0 0 0 0 0 236 94 17 0 0 0 
236 94 17 0 0 0 0 0 0 0 0 0 0 0 0 0 0 0 0 0 0 236 94 17 
236 94 17 236 94 17 236 94 17 236 94 17 236 94 17 0 0 0 0 0 0 255 119 16 
229 94 17 212 83 17 199 75 17 211 81 16 0 0 0 
0 0 0 38 6 12 175 61 17 214 82 16 234 93 17 239 95 17 237 94 17 236 94 17 
236 94 17 236 94 17 236 94 17 236 94 17 236 94 17 236 94 17 236 94 17 236 94 17 
236 94 17 236 94 17 236 94 17 236 94 17 236 94 17 0 0 0 0 0 0 0 0 0 
0 0 0 236 94 17 0 0 0 0 0 0 0 0 0 0 0 0 0 0 0 236 94 17 
236 94 17 236 94 17 237 94 17 236 93 17 235 94 17 0 0 0 255 119 16 233 93 18 
200 73 18 169 58 17 127 39 16 0 0 0 0 0 0 
0 0 0 0 0 0 88 27 20 180 61 18 214 81 17 232 92 17 238 95 17 237 95 17 
236 94 17 236 94 17 236 94 17 236 94 17 236 94 17 236 94 17 236 94 17 236 94 17 
236 94 17 236 94 17 236 94 17 236 94 17 236 94 17 0 0 0 0 0 0 0 0 0 
0 0 0 236 94 17 0 0 0 0 0 0 0 0 0 0 0 0 0 0 0 236 94 17 
237 94 17 0 0 0 0 0 0 235 100 16 255 116 19 253 105 17 238 95 17 214 81 17 
184 63 18 142 40 19 0 0 12 0 0 0 0 0 0 
86 25 15 0 0 0 0 0 0 118 29 21 175 61 17 209 79 17 232 90 18 239 95 18 
236 95 17 235 94 17 236 94 17 236 94 17 236 94 17 236 94 17 236 94 17 236 94 17 
236 94 17 236 94 17 236 94 17 236 94 17 236 94 17 236 94 17 236 94 17 236 94 17 
0 0 0 0 0 0 0 0 0 0 0 0 0 0 0 0 0 0 0 0 0 0 0 0 
235 94 17 239 95 17 228 89 17 238 96 17 249 101 17 237 93 18 214 80 18 188 67 18 
162 53 18 130 27 22 0 0 0 0 0 0 231 95 12 
0 0 0 101 16 20 0 0 0 0 0 52 144 46 17 174 58 17 195 68 18 224 86 18 
244 99 17 242 98 17 236 94 17 236 94 17 236 94 17 236 94 17 236 94 17 236 94 17 
236 94 17 236 94 17 236 94 17 236 94 17 236 94 17 236 94 17 236 94 17 236 94 17 
236 94 17 236 94 17 236 94 17 236 94 17 236 94 17 236 94 17 236 94 17 236 94 17 
236 94 17 234 93 17 247 100 17 247 101 17 223 86 17 203 73 18 188 65 19 161 54 18 
109 33 16 0 0 0 0 0 0 38 6 12 0 0 0 
0 0 0 101 16 20 132 31 15 0 0 0 136 33 11 84 22 17 138 39 18 180 62 18 
211 81 18 229 89 18 236 93 17 237 95 17 238 95 17 238 95 17 238 95 17 237 95 17 
236 94 17 235 94 17 234 94 17 235 94 17 235 94 17 236 94 17 236 94 17 236 94 17 
235 93 17 234 93 17 234 94 17 235 94 17 237 95 17 237 95 17 237 95 17 239 95 17 
238 95 17 237 95 17 233 92 18 219 83 18 196 70 18 166 53 18 139 36 20 147 52 19 
0 0 0 0 0 0 140 34 21 0 0 0 0 0 0 
101 16 20 0 0 0 0 0 0 205 64 0 0 0 0 0 0 0 79 8 18 96 22 19 
149 48 19 199 72 18 218 83 17 227 89 17 233 92 17 231 91 17 235 93 17 237 94 17 
239 96 17 243 98 17 245 99 17 242 99 16 240 97 15 238 95 15 237 94 16 239 96 15 
242 99 15 244 99 16 245 98 17 241 96 17 237 95 17 236 94 17 234 93 17 231 91 17 
223 86 17 223 87 17 210 79 18 180 60 19 160 48 20 123 30 18 0 0 0 0 0 0 
0 0 0 102 29 15 0 0 0 0 0 0 0 0 0 
0 0 0 0 0 0 0 0 0 0 0 0 23 0 19 0 0 0 0 0 0 0 0 28 
74 13 19 149 47 17 172 57 17 206 77 17 221 86 17 209 80 16 214 82 16 225 87 18 
233 92 17 234 94 16 235 93 17 235 93 17 235 94 18 236 94 17 236 94 17 235 93 18 
235 93 17 234 93 17 234 93 16 235 94 17 227 89 17 218 83 17 222 87 16 214 82 16 
194 69 17 184 65 17 175 63 17 141 39 20 8 0 30 0 0 0 0 0 0 105 16 20 
0 0 0 0 0 0 0 0 0 0 0 0 0 0 0 
0 0 0 0 0 0 0 0 0 0 0 0 0 0 0 0 0 0 46 0 20 0 0 0 
0 0 0 0 0 7 84 10 17 177 60 17 210 79 17 177 65 15 169 61 16 200 72 18 
209 79 17 196 75 15 192 69 17 203 70 21 213 76 29 228 89 24 233 94 21 220 82 27 
205 70 28 193 68 19 192 69 17 208 81 15 204 77 17 178 62 17 194 74 15 197 74 16 
162 51 17 119 31 16 13 0 12 0 0 0 0 0 0 138 33 21 0 0 0 0 0 0 
0 0 0 0 0 0 0 0 0 0 0 0 0 0 0 
0 0 0 0 0 0 0 0 0 0 0 0 0 0 0 0 0 0 0 0 0 0 0 14 
0 0 0 0 0 0 0 0 0 0 0 0 104 0 18 59 16 12 80 21 14 158 46 20 
176 63 16 155 56 14 152 47 17 171 49 26 190 59 41 219 83 31 229 93 24 206 72 37 
175 49 37 155 45 21 150 50 14 173 64 14 170 60 16 100 26 17 95 27 13 81 20 10 
0 0 0 0 0 0 0 0 0 0 0 0 122 46 15 0 0 0 0 0 0 0 0 0 
0 0 0 0 0 0 0 0 0 0 0 0 0 0 0 
0 0 0 0 0 0 0 0 0 0 0 0 0 0 0 0 0 0 0 0 0 0 0 0 
0 0 0 106 24 17 0 0 0 0 0 0 0 0 0 0 0 0 0 0 0 0 0 35 
82 15 11 86 23 12 95 20 16 121 22 31 150 37 59 204 76 41 224 91 31 178 57 55 
126 22 53 102 19 26 84 17 13 96 25 11 0 0 23 0 0 0 0 0 0 0 0 0 
0 0 0 0 0 0 0 0 0 0 0 14 0 0 0 0 0 0 0 0 0 0 0 0 
0 0 0 0 0 0 0 0 0 0 0 0 0 0 0 
0 0 0 0 0 0 0 0 0 0 0 0 0 0 0 0 0 0 0 0 0 0 0 0 
0 0 0 0 0 0 0 0 0 0 0 0 0 0 12 0 0 0 0 0 0 0 0 0 
0 0 0 0 0 0 0 0 0 0 0 0 0 0 0 0 0 0 0 0 0 0 0 0 
0 0 0 0 0 0 0 0 0 0 0 0 0 0 0 0 0 0 0 0 0 0 0 21 
0 0 0 0 0 0 0 0 0 0 0 0 0 0 0 0 0 0 0 0 0 0 0 0 
0 0 0 0 0 0 0 0 0 0 0 0 0 0 0 
0 0 0 0 0 0 0 0 0 0 0 0 0 0 0 0 0 0 0 0 0 0 0 0 
0 0 0 0 0 0 0 0 0 0 0 0 0 0 0 0 0 0 0 0 0 0 0 0 
0 0 0 0 0 0 0 0 0 0 0 0 0 0 0 0 0 0 0 0 0 0 0 0 
0 0 0 0 0 0 0 0 0 0 0 0 0 0 0 0 0 0 0 0 0 0 0 0 
0 0 0 0 0 0 0 0 0 0 0 0 0 0 0 0 0 0 0 0 0 0 0 0 
0 0 0 0 0 0 0 0 0 0 0 0 0 0 0 
0 0 0 0 0 0 0 0 0 0 0 0 0 0 0 0 0 0 0 0 0 0 0 0 
0 0 0 0 0 0 0 0 0 0 0 0 0 0 0 0 0 0 0 0 0 0 0 0 
0 0 0 0 0 0 0 0 0 0 0 0 0 0 0 0 0 0 0 0 0 0 0 0 
0 0 0 0 0 0 0 0 0 0 0 0 0 0 0 0 0 0 0 0 0 0 0 0 
0 0 0 0 0 0 0 0 0 0 0 0 0 0 0 0 0 0 0 0 0 0 0 0 
0 0 0 0 0 0 0 0 0 0 0 0 0 0 0 
0 0 0 0 0 0 0 0 0 0 0 0 0 0 0 0 0 0 0 0 0 0 0 0 
0 0 0 0 0 0 0 0 0 0 0 0 0 0 0 0 0 0 0 0 0 0 0 0 
0 0 0 0 0 0 0 0 0 0 0 0 0 0 0 0 0 0 0 0 0 0 0 0 
0 0 0 0 0 0 0 0 0 0 0 0 0 0 0 0 0 0 0 0 0 0 0 0 
0 0 0 0 0 0 0 0 0 0 0 0 0 0 0 0 0 0 0 0 0 0 0 0 
0 0 0 0 0 0 0 0 0 0 0 0 0 0 0 
0 0 0 0 0 0 0 0 0 0 0 0 0 0 0 0 0 0 0 0 0 0 0 0 
0 0 0 0 0 0 0 0 0 0 0 0 0 0 0 0 0 0 0 0 0 0 0 0 
0 0 0 0 0 0 0 0 0 0 0 0 0 0 0 0 0 0 0 0 0 0 0 0 
0 0 0 0 0 0 0 0 0 0 0 0 0 0 0 0 0 0 0 0 0 0 0 0 
0 0 0 0 0 0 0 0 0 0 0 0 0 0 0 0 0 0 0 0 0 0 0 0 
0 0 0 0 0 0 0 0 0 0 0 0 0 0 0 
0 0 0 0 0 0 0 0 0 0 0 0 0 0 0 0 0 0 0 0 0 0 0 0 
0 0 0 0 0 0 0 0 0 0 0 0 0 0 0 0 0 0 0 0 0 0 0 0 
0 0 0 0 0 0 0 0 0 0 0 0 0 0 0 0 0 0 0 0 0 0 0 0 
0 0 0 0 0 0 0 0 0 0 0 0 0 0 0 0 0 0 0 0 0 0 0 0 
0 0 0 0 0 0 0 0 0 0 0 0 0 0 0 0 0 0 0 0 0 0 0 0 
0 0 0 0 0 0 0 0 0 0 0 0 0 0 0 
